<?xml version="1.0" encoding="iso-8859-1"?>
<!-- Generator: Adobe Illustrator 16.0.0, SVG Export Plug-In . SVG Version: 6.00 Build 0)  -->
<!DOCTYPE svg PUBLIC "-//W3C//DTD SVG 1.1//EN" "http://www.w3.org/Graphics/SVG/1.1/DTD/svg11.dtd">
<svg xmlns="http://www.w3.org/2000/svg" xmlns:xlink="http://www.w3.org/1999/xlink" version="1.1" id="Capa_1" x="0px" y="0px" width="512px" height="512px" viewBox="0 0 554.625 554.625" style="enable-background:new 0 0 554.625 554.625;" xml:space="preserve">
<g>
	<g>
		<path d="M470.083,516.652v-4.265v-5.69v-57.26h-19.125v55.262v5.326v3.931c-11.455,1.262-21.602,7.162-28.688,15.673v20.215v4.781    h28.688h19.125h28.85C498.179,539.707,486.368,523.241,470.083,516.652z" fill="#D80027"/>
		<path d="M326.646,258.188v9.562h9.562v19.125h-9.562v9.562h9.562v19.125h-9.562v9.562h9.562v19.125h-9.562v9.562h9.562v19.125    h-9.562v9.562h9.562v19.125h-9.562v9.562h9.562v19.125h-9.562v9.562h9.562V459h-9.562v72.694v18.149v4.781h1.922h5.25h78.891    v-19.049v-8.338v-7.67V191.25v-4.781l-86.062,49.754V258.188z M374.458,439.875h19.125V459h-19.125V439.875z M374.458,430.312    v-19.125h19.125v19.125H374.458z M374.458,401.625V382.5h19.125v19.125H374.458z M374.458,372.938v-19.125h19.125v19.125H374.458z     M374.458,344.25v-19.125h19.125v19.125H374.458z M374.458,315.562v-19.125h19.125v19.125H374.458z M374.458,286.875V267.75    h19.125v19.125H374.458z M345.771,267.75h19.125v19.125h-19.125V267.75z M345.771,296.438h19.125v19.125h-19.125V296.438z     M345.771,325.125h19.125v19.125h-19.125V325.125z M345.771,353.812h19.125v19.125h-19.125V353.812z M345.771,382.5h19.125v19.125    h-19.125V382.5z M345.771,411.188h19.125v19.125h-19.125V411.188z M345.771,439.875h19.125V459h-19.125V439.875z" fill="#D80027"/>
		<polygon points="470.083,439.875 497.624,439.875 460.952,295.242 425.991,439.875 450.958,439.875   " fill="#D80027"/>
		<path d="M202.333,521.854c-2.936-2.133-6.168-3.825-9.562-5.192c-4.59-1.855-9.477-3.061-14.65-3.061    c-17.997,0-33.43,11.733-40.124,27.282c-6.569-16.285-22.462-27.808-41.1-27.808c-18.905,0-41.205,9.926-41.205,34.435    c0.01,2.716,0.335,7.114,0.813,7.114h136.266h9.562h19.288C221.019,542.815,213.512,529.973,202.333,521.854z" fill="#D80027"/>
		<path d="M297.958,86.062V76.5h-19.125V57.375h-9.562V0h-19.125v57.375h-9.562V76.5h-19.125v9.562v9.562h-19.125v414.802    c16.323,8.291,27.798,24.566,28.783,44.198h57.279h9.562h19.125V459v-19.125v-9.562v-19.125v-9.562V382.5v-9.562v-19.125v-9.562    v-19.125v-9.562v-19.125v-9.562V267.75v-9.562V241.75v-2.764v-7.458V95.625h-19.125V86.062z M221.458,114.75h76.5v19.125h-76.5    V114.75z M221.458,143.438h76.5v19.125h-76.5V143.438z M221.458,172.125h76.5v19.125h-76.5V172.125z M221.458,200.812h76.5v19.125    h-76.5V200.812z M297.958,449.438h-9.562h-66.937v-19.125h66.937h9.562V449.438z M297.958,420.75h-9.562h-66.937v-19.125h66.937    h9.562V420.75z M297.958,392.062h-9.562h-66.937v-19.125h66.937h9.562V392.062z M297.958,363.375h-9.562h-66.937V344.25h66.937    h9.562V363.375z M297.958,334.688h-9.562h-66.937v-19.125h66.937h9.562V334.688z M297.958,306h-9.562h-66.937v-19.125h66.937    h9.562V306z M297.958,277.312h-9.562h-66.937v-19.125h66.937h9.562V277.312z M297.958,248.625h-9.562h-66.937V229.5h76.5v12.977    V248.625z" fill="#D80027"/>
	</g>
</g>
<g>
</g>
<g>
</g>
<g>
</g>
<g>
</g>
<g>
</g>
<g>
</g>
<g>
</g>
<g>
</g>
<g>
</g>
<g>
</g>
<g>
</g>
<g>
</g>
<g>
</g>
<g>
</g>
<g>
</g>
</svg>
